<svg width="341" height="222" viewBox="0 0 341 222" fill="none" xmlns="http://www.w3.org/2000/svg">
<g clip-path="url(#clip0_521_2719)">
<path d="M340.402 104.343C340.402 113.136 337.088 121.605 331.12 128.057C325.153 134.509 316.973 138.468 308.215 139.144C307.92 139.167 307.62 139.189 307.321 139.203V106.075C307.321 105.744 307.247 105.417 307.105 105.118C306.963 104.819 306.755 104.556 306.498 104.348C306.469 104.317 306.436 104.29 306.4 104.267C306.367 104.241 306.333 104.217 306.297 104.196C305.983 103.993 305.623 103.873 305.251 103.846C304.878 103.818 304.505 103.885 304.165 104.039L303.794 103.225C304.199 103.04 304.64 102.944 305.086 102.943L279.622 80.9846C279.819 80.7609 280.024 80.5416 280.23 80.3223C285.03 75.2569 291.238 71.7489 298.051 70.2516C304.864 68.7543 311.969 69.3364 318.448 71.9229C324.927 74.5093 330.482 78.9811 334.395 84.7605C338.309 90.5399 340.401 97.3613 340.402 104.343Z" fill="white"/>
<path d="M9.24413 128.143C9.1175 127.495 9.13426 126.828 9.29324 126.187C9.45221 125.547 9.74953 124.949 10.1643 124.436C10.579 123.923 11.101 123.507 11.6936 123.218C12.2862 122.929 12.9349 122.774 13.5941 122.762L33.6941 98.8115L38.7121 105.234L18.2274 127.524C18.1725 128.634 17.7129 129.685 16.9357 130.478C16.1585 131.271 15.1176 131.751 14.0103 131.827C12.903 131.904 11.8062 131.571 10.9278 130.892C10.0493 130.213 9.45028 129.234 9.24413 128.143Z" fill="#FFB8B8"/>
<path d="M104.691 98.6624C104.55 98.8661 104.426 99.0805 104.319 99.3038L82.3716 102.444L79.0389 98.2088L71.9961 102.408L78.6163 112.74L105.383 104.842C106.09 105.482 106.974 105.891 107.918 106.016C108.863 106.141 109.823 105.975 110.671 105.54C111.519 105.105 112.215 104.422 112.666 103.582C113.116 102.742 113.301 101.784 113.195 100.836C113.089 99.8886 112.697 98.9957 112.071 98.2763C111.446 97.5569 110.616 97.0452 109.693 96.8092C108.77 96.5732 107.797 96.6241 106.903 96.9551C106.01 97.2861 105.238 97.8817 104.691 98.6624Z" fill="#FFB8B8"/>
<path d="M67.2031 178.686L71.087 182.557L87.8511 169.404L82.1192 163.691L67.2031 178.686Z" fill="#FFB8B8"/>
<path d="M74.9844 193.634L62.7784 181.468L67.4741 176.747L74.9641 184.213C75.5834 184.83 76.0752 185.563 76.4114 186.371C76.7476 187.178 76.9216 188.044 76.9235 188.919C76.9254 189.794 76.7551 190.661 76.4224 191.469C76.0897 192.278 75.601 193.014 74.9844 193.634Z" fill="#FAFAF4"/>
<path d="M46.5575 215.816H52.0383L54.6454 194.655H46.5566L46.5575 215.816Z" fill="#FFB8B8"/>
<path d="M62.6084 220.91L45.3835 220.911L45.3832 214.249L55.953 214.249C56.827 214.249 57.6924 214.421 58.4998 214.756C59.3073 215.091 60.041 215.581 60.659 216.2C61.277 216.818 61.7672 217.553 62.1017 218.361C62.4362 219.169 62.6084 220.035 62.6084 220.91Z" fill="#FAFAF4"/>
<path d="M45.3672 199.471L39.1245 153.386C38.1475 146.421 38.4507 139.336 40.0191 132.481C41.3002 126.972 43.0308 123.155 45.1631 121.139C45.4996 120.823 45.9304 120.626 46.3894 120.578L67.001 118.429C67.398 118.388 67.7984 118.462 68.1554 118.64C68.5124 118.819 68.8113 119.095 69.0172 119.437L69.6948 120.568C69.777 120.705 69.8433 120.851 69.8925 121.003L74.2503 134.526C74.3154 134.731 74.4203 134.92 74.5591 135.083C74.6979 135.247 74.8678 135.381 75.0588 135.478C81.92 138.984 104.207 150.821 102.932 155.928C101.734 160.726 90.5135 168.507 87.1032 170.777C86.7559 171.009 86.3469 171.132 85.9292 171.129C85.5114 171.125 85.1043 170.997 84.7606 170.759L79.0996 166.882C78.8233 166.693 78.5962 166.44 78.4374 166.145C78.2786 165.85 78.1927 165.521 78.1868 165.186C78.181 164.85 78.2553 164.519 78.4038 164.218C78.5522 163.918 78.7703 163.657 79.0399 163.458L82.9437 160.579C83.1826 160.403 83.369 160.164 83.4828 159.89C83.5965 159.616 83.6334 159.315 83.5894 159.022C83.5454 158.728 83.4222 158.452 83.2331 158.223C83.0439 157.994 82.796 157.821 82.516 157.722L61.5503 150.359C61.3149 150.276 61.0637 150.248 60.816 150.278C60.5683 150.308 60.3307 150.394 60.1214 150.53C59.9122 150.666 59.7369 150.848 59.609 151.062C59.4811 151.277 59.4041 151.518 59.3838 151.767L55.5181 199.06C55.4754 199.568 55.2507 200.042 54.8856 200.396C54.5205 200.75 54.0396 200.96 53.5319 200.986L47.5507 201.286C47.5143 201.288 47.4782 201.289 47.4422 201.289C46.9345 201.291 46.4436 201.107 46.0616 200.772C45.6796 200.438 45.4326 199.975 45.3672 199.471Z" fill="#84E4A8"/>
<path d="M54.8197 80.2744C60.8837 80.2744 65.7995 75.3537 65.7995 69.2837C65.7995 63.2137 60.8837 58.293 54.8197 58.293C48.7557 58.293 43.8398 63.2137 43.8398 69.2837C43.8398 75.3537 48.7557 80.2744 54.8197 80.2744Z" fill="#FFB8B8"/>
<path d="M44.549 119.257L36.4668 89.7387L36.6052 89.6453C36.7788 89.5281 54.1992 78.0136 74.5951 87.2928L74.9649 87.5051L70.1758 118.143C70.0713 118.842 69.7264 119.483 69.2004 119.955C68.6745 120.427 68.0006 120.7 67.2949 120.728L47.588 121.487C47.5482 121.488 47.5086 121.489 47.4693 121.489C46.8049 121.491 46.1587 121.273 45.6307 120.869C45.1027 120.466 44.7224 119.899 44.549 119.257Z" fill="white"/>
<path d="M36.1591 108.955L29.4279 101.206C29.1037 100.834 28.9211 100.359 28.9124 99.8653C28.9037 99.3715 29.0694 98.8905 29.3803 98.507L36.417 89.8057L41.8188 91.2804L44.6827 101.314L39.4609 108.781C39.2788 109.043 39.0391 109.26 38.7602 109.415C38.4813 109.569 38.1706 109.658 37.8521 109.674C37.8144 109.676 37.777 109.677 37.7395 109.677C37.4397 109.677 37.1433 109.613 36.8706 109.488C36.5978 109.364 36.3551 109.182 36.1591 108.955Z" fill="white"/>
<path d="M73.3833 107.342C73.0648 107.326 72.7542 107.238 72.4752 107.083C72.1963 106.928 71.9566 106.711 71.7745 106.449L66.5527 98.9821L69.0644 88.4203L74.0379 87.0625L74.966 87.5058L81.8551 96.1752C82.166 96.5587 82.3317 97.0398 82.323 97.5336C82.3143 98.0274 82.1317 98.5022 81.8075 98.8745L75.0763 106.623C74.8803 106.85 74.6376 107.032 74.3649 107.157C74.0921 107.281 73.7957 107.345 73.4959 107.345C73.4586 107.345 73.4209 107.344 73.3833 107.342Z" fill="white"/>
<path d="M307.321 103.881C307.325 103.992 307.287 104.101 307.214 104.185C307.137 104.275 307.027 104.331 306.909 104.34C306.791 104.35 306.674 104.312 306.584 104.234L305.086 102.941L279.622 80.9831L208.203 19.3866C207.796 19.0375 207.277 18.846 206.74 18.8468C206.204 18.8477 205.686 19.0407 205.279 19.3911L109.102 103.031L108.235 103.782C108.202 103.812 108.164 103.836 108.123 103.854C108.052 103.886 107.973 103.898 107.895 103.89C107.784 103.878 107.68 103.825 107.605 103.742C107.566 103.698 107.536 103.647 107.517 103.591C107.498 103.536 107.49 103.477 107.494 103.418C107.498 103.36 107.513 103.302 107.539 103.25C107.565 103.197 107.601 103.15 107.645 103.111L107.766 103.004L204.694 18.7154C205.263 18.2257 205.989 17.9557 206.739 17.9541C207.49 17.9525 208.217 18.2193 208.788 18.7064L280.23 80.3208L307.165 103.554C307.212 103.595 307.25 103.645 307.277 103.701C307.304 103.757 307.319 103.819 307.321 103.881Z" fill="white"/>
<path d="M253.019 117.095L251.843 113.855L247.793 102.668L239.067 78.5798L229.313 51.6545L211.721 3.08888C211.376 2.14181 210.67 1.37036 209.757 0.943449C208.845 0.516543 207.8 0.468982 206.853 0.811182L105.146 37.7243C104.2 38.0697 103.429 38.7766 103.002 39.6901C102.576 40.6036 102.529 41.6491 102.871 42.5974L127.812 111.448L128.236 112.624L154.415 124.501L161.773 127.839L162.967 128.38L194.121 142.517L195.328 142.078L215.763 134.663L246.586 123.476L250.739 121.968C251.686 121.623 252.458 120.916 252.885 120.003C253.312 119.09 253.361 118.044 253.019 117.095Z" fill="white"/>
<path d="M210.371 59.7456C209.864 58.3518 208.825 57.2162 207.482 56.5879C206.14 55.9596 204.603 55.8899 203.209 56.394L162.967 71.0044L143.534 78.0567C142.843 78.3066 142.209 78.6902 141.666 79.1856C141.124 79.681 140.685 80.2786 140.373 80.9441C140.062 81.6096 139.885 82.3301 139.851 83.0643C139.818 83.7985 139.93 84.532 140.18 85.2229C140.431 85.9138 140.814 86.5486 141.31 87.0909C141.805 87.6333 142.403 88.0726 143.068 88.3837C143.733 88.6948 144.453 88.8716 145.186 88.904C145.92 88.9364 146.653 88.8238 147.343 88.5727L162.967 82.903L207.023 66.9144C208.415 66.4065 209.55 65.3666 210.177 64.0228C210.805 62.679 210.875 61.1408 210.371 59.7456Z" fill="#08263F"/>
<path d="M217.457 79.3101C216.949 77.9162 215.911 76.7807 214.568 76.1524C213.226 75.5241 211.689 75.4543 210.295 75.9584L203.478 78.433L162.967 93.1374L150.62 97.6167C149.227 98.1233 148.093 99.1625 147.465 100.506C146.838 101.849 146.769 103.387 147.274 104.781C147.779 106.176 148.816 107.312 150.157 107.942C151.499 108.571 153.035 108.641 154.428 108.137L162.967 105.036L214.109 86.4743C214.225 86.434 214.337 86.3848 214.448 86.3356C215.747 85.7653 216.78 84.7222 217.339 83.4176C217.897 82.113 217.94 80.6446 217.457 79.3101Z" fill="#08263F"/>
<path d="M224.618 99.0795C224.112 97.686 223.074 96.5504 221.732 95.922C220.39 95.2937 218.854 95.2238 217.461 95.7279L198.341 102.668L183.539 108.043L162.967 115.507L157.781 117.391C156.583 117.828 155.569 118.661 154.908 119.753C154.247 120.845 153.978 122.13 154.146 123.396C154.198 123.773 154.288 124.143 154.415 124.501L161.773 127.839L162.967 127.405H162.976L200.308 113.856L221.27 106.248C222.663 105.741 223.798 104.702 224.426 103.358C225.054 102.013 225.123 100.475 224.618 99.0795Z" fill="#08263F"/>
<path d="M182.717 40.5132C182.209 39.1194 181.171 37.9838 179.828 37.3555C178.485 36.7272 176.949 36.6575 175.555 37.1615L152.443 45.5474C151.05 46.054 149.916 47.0931 149.289 48.4366C148.661 49.7801 148.592 51.3179 149.097 52.7121C149.602 54.1064 150.639 55.243 151.981 55.8722C153.322 56.5014 154.858 56.5718 156.252 56.0678L163.565 53.4142L168.407 51.6556L179.368 47.6774C180.761 47.1706 181.895 46.1316 182.523 44.7884C183.15 43.4453 183.22 41.9077 182.717 40.5132Z" fill="#08263F"/>
<path d="M274.951 51.6553H166.767C166.129 51.6559 165.501 51.8173 164.942 52.1247C164.382 52.432 163.909 52.8754 163.566 53.4139C163.174 54.0236 162.966 54.7337 162.967 55.4589V128.381L194.121 142.517L198.511 144.509L205.445 147.654C205.851 147.838 206.291 147.933 206.737 147.933C207.182 147.933 207.623 147.838 208.029 147.654L214.962 144.509L236.662 134.664L256.886 125.486L278.751 115.57V55.4589C278.75 54.4503 278.35 53.4832 277.637 52.77C276.925 52.0569 275.959 51.6559 274.951 51.6553Z" fill="#84E4A8"/>
<path d="M252.6 102.67H189.12C187.676 102.671 186.289 103.231 185.249 104.233C184.209 105.235 183.597 106.6 183.541 108.044C183.533 108.117 183.53 108.19 183.532 108.263C183.534 109.746 184.123 111.168 185.171 112.216C186.218 113.265 187.638 113.855 189.12 113.857H252.6C254.082 113.857 255.503 113.268 256.551 112.219C257.599 111.17 258.188 109.747 258.188 108.263C258.188 106.78 257.599 105.357 256.551 104.308C255.503 103.259 254.082 102.67 252.6 102.67Z" fill="white"/>
<path d="M256.216 124.809C255.208 123.946 253.925 123.473 252.599 123.476H189.119C187.637 123.476 186.216 124.065 185.168 125.114C184.12 126.163 183.531 127.586 183.531 129.069C183.531 130.553 184.12 131.975 185.168 133.024C186.216 134.073 187.637 134.663 189.119 134.663H236.662L256.887 125.485C256.683 125.241 256.458 125.015 256.216 124.809Z" fill="white"/>
<path d="M198.512 144.51L205.445 147.656C205.851 147.839 206.292 147.934 206.737 147.934C207.183 147.934 207.623 147.839 208.029 147.656L214.963 144.51H198.512Z" fill="white"/>
<path d="M238.4 78.8223C238.007 77.7455 237.292 76.8157 236.354 76.1586C235.415 75.5015 234.297 75.1489 233.152 75.1484H208.565C207.491 75.1494 206.441 75.4596 205.539 76.0421C204.636 76.6245 203.921 77.4545 203.477 78.433C203.146 79.1576 202.975 79.9452 202.977 80.742C202.979 82.2249 203.568 83.6464 204.616 84.695C205.663 85.7435 207.083 86.3335 208.565 86.3356H233.152C234.051 86.3357 234.937 86.1186 235.734 85.7029C236.531 85.2872 237.216 84.6851 237.732 83.9476C238.247 83.2102 238.577 82.3592 238.693 81.4669C238.809 80.5747 238.709 79.6674 238.4 78.8223Z" fill="white"/>
<path d="M234.493 134.665L212.794 144.509L207.657 146.841C207.368 146.971 207.054 147.039 206.737 147.039C206.419 147.039 206.105 146.971 205.816 146.841L200.679 144.509H198.511L205.445 147.655C205.851 147.839 206.291 147.934 206.737 147.934C207.182 147.934 207.623 147.839 208.029 147.655L214.962 144.509L236.662 134.665H234.493ZM234.493 134.665L212.794 144.509L207.657 146.841C207.368 146.971 207.054 147.039 206.737 147.039C206.419 147.039 206.105 146.971 205.816 146.841L200.679 144.509H198.511L205.445 147.655C205.851 147.839 206.291 147.934 206.737 147.934C207.182 147.934 207.623 147.839 208.029 147.655L214.962 144.509L236.662 134.665H234.493ZM234.493 134.665L212.794 144.509L207.657 146.841C207.368 146.971 207.054 147.039 206.737 147.039C206.419 147.039 206.105 146.971 205.816 146.841L200.679 144.509H198.511L205.445 147.655C205.851 147.839 206.291 147.934 206.737 147.934C207.182 147.934 207.623 147.839 208.029 147.655L214.962 144.509L236.662 134.665H234.493ZM307.321 103.882C307.156 103.718 306.975 103.571 306.78 103.444C306.341 103.159 305.837 102.989 305.315 102.951C304.793 102.912 304.27 103.007 303.794 103.224L256.215 124.811L234.493 134.665L212.794 144.509L207.657 146.841C207.368 146.971 207.054 147.039 206.737 147.039C206.419 147.039 206.105 146.971 205.816 146.841L200.679 144.509L195.328 142.08L162.975 127.406L162.966 127.402L154.146 123.397L127.811 111.449L109.679 103.224C109.495 103.139 109.301 103.074 109.102 103.032C108.665 102.922 108.208 102.913 107.766 103.005C107.059 103.15 106.423 103.534 105.966 104.094C105.51 104.653 105.259 105.352 105.258 106.075V218.452C105.259 219.282 105.589 220.079 106.175 220.666C106.762 221.253 107.557 221.583 108.387 221.584H305.086C305.916 221.583 306.711 221.253 307.298 220.666C307.884 220.079 308.214 219.282 308.215 218.452V106.075C308.217 105.255 307.896 104.467 307.321 103.882ZM307.321 218.452C307.321 219.045 307.085 219.614 306.666 220.034C306.247 220.453 305.679 220.689 305.086 220.689H108.387C107.794 220.689 107.226 220.453 106.807 220.034C106.388 219.614 106.152 219.045 106.152 218.452V106.075C106.152 105.701 106.246 105.333 106.425 105.005C106.604 104.676 106.862 104.398 107.176 104.195C107.397 104.054 107.64 103.951 107.895 103.891C107.971 103.875 108.047 103.863 108.123 103.855C108.211 103.843 108.299 103.837 108.387 103.837C108.705 103.838 109.019 103.906 109.308 104.039L128.236 112.626L154.415 124.502L161.773 127.841L162.966 128.382L194.121 142.518L198.511 144.509L205.445 147.655C205.851 147.839 206.291 147.934 206.737 147.934C207.182 147.934 207.623 147.839 208.029 147.655L214.962 144.509L236.662 134.665L256.886 125.487L304.165 104.039C304.505 103.884 304.879 103.818 305.251 103.845C305.624 103.873 305.983 103.993 306.297 104.195C306.333 104.217 306.368 104.241 306.4 104.267C306.436 104.29 306.469 104.317 306.499 104.348C306.756 104.556 306.963 104.819 307.105 105.118C307.248 105.417 307.321 105.744 307.321 106.075L307.321 218.452ZM234.493 134.665L212.794 144.509L207.657 146.841C207.368 146.971 207.054 147.039 206.737 147.039C206.419 147.039 206.105 146.971 205.816 146.841L200.679 144.509H198.511L205.445 147.655C205.851 147.839 206.291 147.934 206.737 147.934C207.182 147.934 207.623 147.839 208.029 147.655L214.962 144.509L236.662 134.665H234.493ZM234.493 134.665L212.794 144.509L207.657 146.841C207.368 146.971 207.054 147.039 206.737 147.039C206.419 147.039 206.105 146.971 205.816 146.841L200.679 144.509H198.511L205.445 147.655C205.851 147.839 206.291 147.934 206.737 147.934C207.182 147.934 207.623 147.839 208.029 147.655L214.962 144.509L236.662 134.665H234.493ZM161.773 127.841L162.966 128.382V127.406L161.773 127.841ZM234.493 134.665L212.794 144.509L207.657 146.841C207.368 146.971 207.054 147.039 206.737 147.039C206.419 147.039 206.105 146.971 205.816 146.841L200.679 144.509H198.511L205.445 147.655C205.851 147.839 206.291 147.934 206.737 147.934C207.182 147.934 207.623 147.839 208.029 147.655L214.962 144.509L236.662 134.665H234.493Z" fill="white"/>
<path d="M78.8701 221.582H28.3543C28.2357 221.582 28.122 221.535 28.0382 221.451C27.9543 221.367 27.9072 221.254 27.9072 221.135C27.9072 221.016 27.9543 220.902 28.0382 220.819C28.122 220.735 28.2357 220.688 28.3543 220.688H78.8701C78.9887 220.688 79.1024 220.735 79.1862 220.819C79.2701 220.902 79.3172 221.016 79.3172 221.135C79.3172 221.254 79.2701 221.367 79.1862 221.451C79.1024 221.535 78.9887 221.582 78.8701 221.582Z" fill="white"/>
<path d="M50.6434 77.3214C49.8186 76.9025 49.1329 76.2533 48.6691 75.4524C48.2053 74.6514 47.9834 73.7331 48.0302 72.8085C48.077 71.8839 48.3906 70.9928 48.9329 70.2429C49.4752 69.493 50.223 68.9165 51.0858 68.5832C54.3991 67.3033 58.1135 69.9153 61.5865 69.1727C65.0481 68.4325 67.0506 64.29 66.2243 60.8447C65.3981 57.3993 62.3908 54.8043 59.0747 53.5649C56.9089 52.7575 54.5895 52.448 52.2881 52.6591C49.9866 52.8703 47.7621 53.5968 45.7791 54.7848C43.8165 56.0077 42.182 57.6919 41.0177 59.691C39.8534 61.6901 39.1944 63.9436 39.0982 66.2556C39.0531 68.5697 39.6179 70.8548 40.7358 72.8809C41.8536 74.9069 43.485 76.6024 45.4657 77.7966C46.3484 78.3059 47.3759 78.7148 48.3687 78.4855C49.1837 78.2205 49.9515 77.8276 50.6434 77.3214Z" fill="#84E4A8"/>
<path d="M47.0863 54.5173C44.1647 50.6383 40.2208 47.4516 35.6315 45.8717C31.0422 44.2918 25.7978 44.4187 21.4876 46.6514C17.1774 48.8841 13.9631 53.3183 13.6276 58.1646C13.0692 66.2304 19.9543 73.0867 20.6609 81.1408C20.8849 83.6937 20.4709 86.2623 19.4564 88.6152C18.4418 90.9681 16.8584 93.0314 14.8489 94.6193C12.8394 96.2072 10.4668 97.2698 7.94494 97.7113C5.42304 98.1529 2.83103 97.9596 0.402344 97.1489C2.13219 98.5742 4.13781 99.6261 6.29322 100.238C8.44862 100.851 10.7072 101.01 12.9272 100.707C15.1435 100.374 17.258 99.5514 19.1174 98.299C20.9767 97.0466 22.5344 95.3957 23.6773 93.466C25.2269 90.771 25.8632 87.6406 26.1103 84.5409C26.4985 79.6399 25.9728 74.7093 24.5601 70.0006C23.7878 67.4315 22.7405 64.7878 23.2302 62.1501C23.5094 60.7781 24.1851 59.5185 25.1735 58.5277C26.1618 57.5369 27.4192 56.8587 28.7894 56.5772C31.0037 56.1619 33.2678 56.8384 35.3821 57.6169C37.4965 58.3955 39.6282 59.2964 41.8805 59.348C44.1328 59.3995 46.586 58.3675 47.4564 56.2875L47.0863 54.5173Z" fill="#84E4A8"/>
</g>
<defs>
<clipPath id="clip0_521_2719">
<rect width="340" height="221" fill="white" transform="translate(0.402344 0.583984)"/>
</clipPath>
</defs>
</svg>
